#!OML:ASF F:\VICON\USERDATA\INSTALL\rory3\rory3.ASF
:FULLY-SPECIFIED
:DEGREES
121
root 3.26192 17.6781 0.0163751 12.7872 -47.2352 4.41428
lowerback -8.90634 1.10027 -1.00902
upperback -9.93123 1.30075 0.737858
thorax -5.43614 0.642252 1.39542
lowerneck -3.76515 17.8347 12.0127
upperneck 14.25 23.3583 -1.24614
head 6.49333 11.8951 -0.292204
rclavicle 1.799e-014 -2.94201e-014
rhumerus 11.5962 -32.1658 8.49573
rradius 127.908
rwrist -58.6325
rhand -5.02094 -45.8338
rfingers 7.12502
rthumb 20.7733 -74.7419
lclavicle 1.799e-014 -2.94201e-014
lhumerus 26.8457 15.272 -17.9616
lradius 33.7088
lwrist 42.0263
lhand -29.2325 -23.277
lfingers 7.12502
lthumb -2.57622 6.68721
rfemur -7.73075 5.24612 0.130365
rtibia 18.0294
rfoot -2.18958 -26.6675
rtoes -22.466
lfemur -18.1773 -5.92154 -15.9064
ltibia 6.38819
lfoot -0.517627 25.4542
ltoes 5.68087
122
root 3.25518 17.6747 -0.0127876 12.9556 -47.2324 4.23247
lowerback -9.01958 1.12769 -0.876526
upperback -9.8919 1.33104 0.70801
thorax -5.32696 0.647408 1.29364
lowerneck -4.33956 17.8929 11.6635
upperneck 14.7634 23.3104 -0.603576
head 6.63066 11.8915 -0.00143936
rclavicle 5.17834e-014 4.13472e-014
rhumerus 11.6888 -32.1965 8.1932
rradius 127.785
rwrist -58.3778
rhand -5.08817 -45.5836
rfingers 7.12502
rthumb 20.7087 -74.4987
lclavicle 5.17834e-014 4.13472e-014
lhumerus 27.0518 15.4517 -17.7636
lradius 33.5836
lwrist 41.5405
lhand -28.54 -22.9492
lfingers 7.12502
lthumb -1.90743 7.02203
rfemur -7.80463 5.28985 0.375838
rtibia 18.0358
rfoot -3.72201 -27.1612
rtoes -18.2424
lfemur -18.4236 -5.85939 -15.6729
ltibia 6.68864
lfoot -0.546225 25.4638
ltoes 5.39553
123
root 3.24994 17.6666 -0.0351591 12.7505 -47.2238 4.5192
lowerback -9.22622 1.11952 -0.977043
upperback -9.7602 1.32465 0.550738
thorax -5.06829 0.644115 1.19014
lowerneck -5.0412 17.9305 11.377
upperneck 15.2888 23.2181 -0.000320152
head 6.80355 11.8661 0.281752
rclavicle -1.09332e-015 -1.74931e-014
rhumerus 11.7089 -32.3755 7.94401
rradius 127.68
rwrist -58.1537
rhand -5.21748 -45.2681
rfingers 7.12502
rthumb 20.5844 -74.1967
lclavicle -1.09332e-015 -1.74931e-014
lhumerus 27.1333 15.5951 -17.8028
lradius 33.6077
lwrist 41.4604
lhand -28.4521 -23.2158
lfingers 7.12502
lthumb -1.82256 6.75614
rfemur -7.79713 5.08 0.235542
rtibia 18.0276
rfoot -5.69095 -27.0469
rtoes -14.8077
lfemur -18.606 -5.8974 -15.8145
ltibia 6.96557
lfoot -0.33734 25.4092
ltoes 4.62028
124
root 3.24765 17.6578 -0.0616761 12.4441 -47.2039 4.82666
lowerback -9.21764 1.12388 -1.1644
upperback -9.66139 1.34089 0.429905
thorax -4.9688 0.660017 1.17021
lowerneck -5.21411 17.8326 11.4666
upperneck 15.3614 23.0712 -0.101161
head 6.87088 11.7894 0.24917
rclavicle 3.81667e-014 -1.11319e-014
rhumerus 11.6615 -32.5377 7.94095
rradius 127.713
rwrist -58.177
rhand -5.35641 -45.1796
rfingers 7.12502
rthumb 20.4509 -74.1226
lclavicle 3.81667e-014 -1.11319e-014
lhumerus 27.2733 15.6007 -17.7168
lradius 33.58
lwrist 41.2661
lhand -28.753 -23.68
lfingers 7.12502
lthumb -2.11314 6.28931
rfemur -7.73238 5.03089 0.0999885
rtibia 18.0633
rfoot -7.5454 -26.5377
rtoes -13.3897
lfemur -18.6972 -5.94856 -15.9597
ltibia 7.17712
lfoot -0.515203 25.3384
ltoes 4.93922
125
root 3.24423 17.6531 -0.0955166 12.5235 -47.1073 4.67009
lowerback -9.19652 1.19189 -1.09497
upperback -9.56189 1.43028 0.341163
thorax -4.87093 0.698646 1.04342
lowerneck -5.16228 17.6087 11.9635
upperneck 14.949 22.8209 -0.792369
head 6.85533 11.6406 -0.0508949
rclavicle 1.73937e-014 -2.38542e-015
rhumerus 11.371 -32.8193 8.12271
rradius 127.727
rwrist -58.4684
rhand -5.5316 -45.5142
rfingers 7.12502
rthumb 20.2826 -74.4752
lclavicle 1.73937e-014 -2.38542e-015
lhumerus 27.6862 15.8017 -17.4668
lradius 33.4752
lwrist 41.1721
lhand -28.6154 -23.3856
lfingers 7.12502
lthumb -1.9803 6.58493
rfemur -7.77741 5.06336 0.378732
rtibia 18.1982
rfoot -7.71812 -26.6017
rtoes -14.8325
lfemur -18.8095 -5.98047 -15.7151
ltibia 7.27124
lfoot -0.746305 25.3242
ltoes 5.70976
126
root 3.24147 17.648 -0.131411 12.5356 -47.042 4.69409
lowerback -9.23217 1.21808 -1.18462
upperback -9.47035 1.47191 0.255826
thorax -4.754 0.722407 1.0082
lowerneck -5.40877 17.5282 12.2701
upperneck 14.9426 22.6979 -1.10851
head 6.95989 11.5674 -0.161576
rclavicle -5.57591e-014 -2.62396e-014
rhumerus 11.2596 -33.0782 8.04785
rradius 127.65
rwrist -58.6593
rhand -6.08566 -46.0165
rfingers 7.12502
rthumb 19.75 -75.0331
lclavicle -5.57591e-014 -2.62396e-014
lhumerus 28.139 16.4721 -16.8965
lradius 33.3274
lwrist 40.6807
lhand -27.9123 -22.7026
lfingers 7.12502
lthumb -1.30118 7.27315
rfemur -7.94393 4.79768 0.52716
rtibia 18.3526
rfoot -6.43488 -26.9303
rtoes -17.9823
lfemur -19.035 -6.00653 -15.5979
ltibia 7.44809
lfoot -0.635831 25.3349
ltoes 5.49883
127
root 3.23971 17.6392 -0.163127 12.1927 -47.1086 5.10963
lowerback -9.14793 1.04745 -1.58663
upperback -9.53079 1.26542 0.380707
thorax -4.87499 0.646827 1.35131
lowerneck -5.28024 17.6561 12.0028
upperneck 15.2957 22.9062 -0.949602
head 7.01711 11.6709 -0.056905
rclavicle 3.15074e-014 3.97569e-015
rhumerus 12.1185 -32.9492 7.35253
rradius 127.599
rwrist -58.6023
rhand -6.23596 -45.9685
rfingers 7.12502
rthumb 19.6055 -75
lclavicle 3.15074e-014 3.97569e-015
lhumerus 27.8179 16.507 -16.6119
lradius 33.2663
lwrist 39.9586
lhand -27.6973 -22.4972
lfingers 7.12502
lthumb -1.09354 7.47976
rfemur -8.03754 4.50794 0.34185
rtibia 18.424
rfoot -5.1463 -27.1221
rtoes -20.7317
lfemur -19.2757 -5.97697 -15.8047
ltibia 7.83616
lfoot -0.617988 25.3288
ltoes 5.32888
128
root 3.23565 17.6295 -0.189333 12.081 -47.1724 5.15069
lowerback -9.20115 1.01811 -1.48608
upperback -9.52525 1.22134 0.398005
thorax -4.83553 0.618546 1.3121
lowerneck -4.83916 17.6622 11.8296
upperneck 15.181 22.9866 -0.960079
head 6.89293 11.7094 -0.0822594
rclavicle 3.29983e-014 2.06736e-014
rhumerus 12.5079 -32.8805 6.98066
rradius 127.674
rwrist -58.7194
rhand -5.98771 -45.9119
rfingers 7.12502
rthumb 19.8442 -74.9189
lclavicle 3.29983e-014 2.06736e-014
lhumerus 27.6397 16.2346 -16.5804
lradius 33.2926
lwrist 39.7069
lhand -28.0185 -22.8545
lfingers 7.12502
lthumb -1.40383 7.1206
rfemur -8.01735 4.57488 0.427257
rtibia 18.4347
rfoot -5.21635 -27.2095
rtoes -21.133
lfemur -19.4469 -5.89064 -15.7465
ltibia 8.23154
lfoot -0.877513 25.3457
ltoes 5.84585
129
root 3.22888 17.6229 -0.213078 12.2877 -47.2093 4.80799
lowerback -9.24677 1.08344 -1.25232
upperback -9.55639 1.29749 0.493428
thorax -4.84236 0.645909 1.28492
lowerneck -4.03598 17.5302 11.7624
upperneck 14.5092 22.9458 -1.30014
head 6.57323 11.6771 -0.290858
rclavicle -1.42131e-014 6.36111e-015
rhumerus 12.6188 -32.799 6.94077
rradius 127.785
rwrist -58.9799
rhand -6.305 -46.3225
rfingers 7.12502
rthumb 19.5391 -75.3607
lclavicle -1.42131e-014 6.36111e-015
lhumerus 27.7776 16.1493 -16.1209
lradius 33.2422
lwrist 39.2613
lhand -28.262 -23.2721
lfingers 7.12502
lthumb -1.63891 6.70138
rfemur -8.00117 4.64239 0.784607
rtibia 18.4024
rfoot -5.5979 -27.1621
rtoes -20.944
lfemur -19.6056 -5.78609 -15.4276
ltibia 8.59466
lfoot -1.29563 25.3849
ltoes 6.62392
130
root 3.22062 17.6179 -0.231781 12.287 -47.3618 4.74165
lowerback -9.30819 1.1376 -1.27248
upperback -9.53815 1.37323 0.573171
thorax -4.79439 0.687483 1.3842
lowerneck -3.70463 17.4415 11.5353
upperneck 14.2094 22.8844 -1.35557
head 6.39836 11.6398 -0.339638
rclavicle 1.13407e-013 3.49861e-014
rhumerus 12.8286 -32.6912 6.75201
rradius 127.844
rwrist -59.0807
rhand -6.74054 -46.5352
rfingers 7.12502
rthumb 19.1203 -75.6153
lclavicle 1.13407e-013 3.49861e-014
lhumerus 27.7399 15.9904 -15.9077
lradius 33.2562
lwrist 39.1747
lhand -28.5173 -23.5316
lfingers 7.12502
lthumb -1.88553 6.43982
rfemur -7.96356 4.51831 0.872205
rtibia 18.2967
rfoot -5.42377 -27.1466
rtoes -22.0008
lfemur -19.736 -5.61901 -15.3878
ltibia 9.01951
lfoot -1.67045 25.3552
ltoes 7.04201
